<svg xmlns:xlink="http://www.w3.org/1999/xlink" xmlns="http://www.w3.org/2000/svg" id="Слой_1" data-name="Слой 1" viewBox="0 0 56.08 21.58" width="175"  height="67" ><defs><style>.cls-1{fill:#38444c;}.cls-2{fill:#54bec3;}.cls-3{fill:#bdbcbc;}.cls-4{fill:none;}</style></defs><title>logo-mydent</title><path class="cls-1" d="M42.42,2.65H46v1.2H43.74V6.07h1.81v1.2H43.74V9.85H46v1.2h-3.6Z" transform="translate(-0.13 -0.11)"/><path class="cls-1" d="M46.78,2.65h1.66l1.28,5h0v-5h1.18v8.4H49.56L48,4.92h0v6.13H46.78Z" transform="translate(-0.13 -0.11)"/><path class="cls-1" d="M53.23,3.85H51.56V2.65H56.2v1.2H54.54v7.2H53.23Z" transform="translate(-0.13 -0.11)"/><path class="cls-2" d="M26.78,2.65h1.88l.84,6h0l.84-6h1.88v8.4H31V4.69h0l-1,6.36h-1.1L28,4.69h0v6.36H26.78Z" transform="translate(-0.13 -0.11)"/><path class="cls-3" d="M28.91,14.69l-.27.26a.84.84,0,0,0-.63-.29.7.7,0,0,0-.5.2.74.74,0,0,0-.11.86.6.6,0,0,0,.25.25.74.74,0,0,0,.36.09.78.78,0,0,0,.31-.06,1.12,1.12,0,0,0,.31-.23l.26.28a1.4,1.4,0,0,1-.43.31,1.14,1.14,0,0,1-.46.09,1,1,0,0,1-1.08-1.08,1.12,1.12,0,0,1,.14-.55,1,1,0,0,1,.4-.38,1.09,1.09,0,0,1,.56-.15,1.21,1.21,0,0,1,.49.11A.86.86,0,0,1,28.91,14.69Z" transform="translate(-0.13 -0.11)"/><path class="cls-3" d="M29.08,14.86H30.5v.36H30v1.16h-.38V15.22h-.53v-.36Z" transform="translate(-0.13 -0.11)"/><path class="cls-3" d="M31.45,14.82a.8.8,0,0,1,.4.11.74.74,0,0,1,.29.29.78.78,0,0,1,0,.8.74.74,0,0,1-.29.29.81.81,0,0,1-.41.11.79.79,0,0,1-.56-.23.73.73,0,0,1-.23-.56.76.76,0,0,1,.26-.59A.8.8,0,0,1,31.45,14.82Zm0,.36a.41.41,0,0,0-.3.12.49.49,0,0,0,0,.64.44.44,0,0,0,.6,0,.49.49,0,0,0,0-.64A.41.41,0,0,0,31.46,15.18Z" transform="translate(-0.13 -0.11)"/><path class="cls-3" d="M33.5,15.82l.47-1h.25l.38,1.52h-.37l-.2-.89-.45.89h-.16L33,15.49l-.21.89H32.4l.38-1.52H33Z" transform="translate(-0.13 -0.11)"/><path class="cls-3" d="M35.93,14.86h.38v1.52h-.38v-.16a.72.72,0,0,1-.22.15.64.64,0,0,1-.24.05.68.68,0,0,1-.51-.23.8.8,0,0,1-.21-.57A.83.83,0,0,1,35,15a.67.67,0,0,1,.5-.23.75.75,0,0,1,.26,0,.78.78,0,0,1,.22.15v-.15Zm-.4.31a.35.35,0,0,0-.29.13.49.49,0,0,0,0,.64.41.41,0,0,0,.29.13.38.38,0,0,0,.3-.13.45.45,0,0,0,.12-.33.44.44,0,0,0-.12-.32A.41.41,0,0,0,35.53,15.17Z" transform="translate(-0.13 -0.11)"/><path class="cls-3" d="M36.56,14.86H38v.36h-.5v1.16H37.1V15.22h-.53v-.36Z" transform="translate(-0.13 -0.11)"/><path class="cls-3" d="M38.94,14.82a.8.8,0,0,1,.4.11.74.74,0,0,1,.29.29.78.78,0,0,1,0,.8.74.74,0,0,1-.29.29.81.81,0,0,1-.41.11.79.79,0,0,1-.56-.23.73.73,0,0,1-.23-.56A.76.76,0,0,1,38.4,15,.78.78,0,0,1,38.94,14.82Zm0,.36a.41.41,0,0,0-.3.12.49.49,0,0,0,0,.64.44.44,0,0,0,.6,0,.49.49,0,0,0,0-.64A.41.41,0,0,0,39,15.18Z" transform="translate(-0.13 -0.11)"/><path class="cls-3" d="M41.41,16.38H41l-.38-1-.39,1h-.39l.65-1.52h.25Z" transform="translate(-0.13 -0.11)"/><path class="cls-3" d="M42.33,14.82a.8.8,0,0,1,.4.11.74.74,0,0,1,.29.29.78.78,0,0,1,0,.8.74.74,0,0,1-.29.29.81.81,0,0,1-.41.11.79.79,0,0,1-.56-.23.73.73,0,0,1-.23-.56.82.82,0,0,1,.8-.81Zm0,.36a.41.41,0,0,0-.3.12.49.49,0,0,0,0,.64.43.43,0,0,0,.6,0,.49.49,0,0,0,0-.64A.39.39,0,0,0,42.33,15.18Z" transform="translate(-0.13 -0.11)"/><path class="cls-3" d="M43.44,14.86h.89v.36h-.5v1.16h-.38V14.86Z" transform="translate(-0.13 -0.11)"/><path class="cls-3" d="M44.79,16.38h-.2V14.86H45v.89l.78-.89h.18v1.52h-.37v-.87Z" transform="translate(-0.13 -0.11)"/><path class="cls-3" d="M47.13,15.77h-.31a.81.81,0,0,1-.48-.12.45.45,0,0,1-.17-.39v-.4h.38v.37c0,.13.09.2.27.2h.3v-.57h.38v1.52h-.37Z" transform="translate(-0.13 -0.11)"/><path class="cls-3" d="M49.42,15.73H48.2a.42.42,0,0,0,.14.26.41.41,0,0,0,.29.1.53.53,0,0,0,.37-.15l.32.15a.76.76,0,0,1-.29.25,1,1,0,0,1-.4.08.78.78,0,0,1-.58-.23.77.77,0,0,1-.23-.56.85.85,0,0,1,.22-.58.77.77,0,0,1,.56-.23.78.78,0,0,1,.58.23.82.82,0,0,1,.22.61Zm-.39-.3a.43.43,0,0,0-.15-.21.47.47,0,0,0-.54,0,.47.47,0,0,0-.14.2Z" transform="translate(-0.13 -0.11)"/><path class="cls-3" d="M51.21,15.17l-.32.17a.51.51,0,0,0-.18-.13.65.65,0,0,0-.21,0,.48.48,0,0,0-.35.13.42.42,0,0,0-.13.33.42.42,0,0,0,.13.32.46.46,0,0,0,.33.12.51.51,0,0,0,.4-.17l.3.21a.92.92,0,0,1-1.32.08.79.79,0,0,1-.23-.56.84.84,0,0,1,.11-.41.79.79,0,0,1,.31-.29.93.93,0,0,1,.44-.11.91.91,0,0,1,.41.09A.79.79,0,0,1,51.21,15.17Z" transform="translate(-0.13 -0.11)"/><path class="cls-3" d="M51.55,14.86h.38v.57l.52-.57h.46l-.68.74.68.78h-.48L52,15.84l0,.05v.49h-.38V14.86Z" transform="translate(-0.13 -0.11)"/><path class="cls-3" d="M54.21,14.86h.38v1.52h-.38v-.16a.72.72,0,0,1-.22.15.64.64,0,0,1-.24.05.68.68,0,0,1-.51-.23.8.8,0,0,1-.21-.57.83.83,0,0,1,.21-.58.67.67,0,0,1,.5-.23.75.75,0,0,1,.26,0,.78.78,0,0,1,.22.15v-.15Zm-.4.31a.35.35,0,0,0-.29.13.49.49,0,0,0,0,.64.41.41,0,0,0,.29.13.38.38,0,0,0,.3-.13.45.45,0,0,0,.12-.33.44.44,0,0,0-.12-.32A.41.41,0,0,0,53.81,15.17Z" transform="translate(-0.13 -0.11)"/><path class="cls-3" d="M55.24,15.75a.43.43,0,0,1-.2-.15.44.44,0,0,1-.08-.25.47.47,0,0,1,.1-.3.41.41,0,0,1,.23-.16,2.12,2.12,0,0,1,.42,0h.38v1.52h-.38v-.55h-.08l-.36.55h-.45Zm.46-.21v-.36h-.13c-.14,0-.22.06-.22.18s.08.18.24.18Z" transform="translate(-0.13 -0.11)"/><path class="cls-3" d="M35.89,18.29h.38v.57l.52-.57h.46l-.68.74.68.78h-.51l-.45-.54,0,.05v.49h-.38V18.29Z" transform="translate(-0.13 -0.11)"/><path class="cls-3" d="M38.79,19.81H38.4l-.38-1-.39,1h-.39l.65-1.52h.25Z" transform="translate(-0.13 -0.11)"/><path class="cls-3" d="M39.19,19.81H39V18.29h.37v.89l.78-.89h.18v1.52H40v-.87Z" transform="translate(-0.13 -0.11)"/><path class="cls-3" d="M41.08,18.84h.57v-.55H42v1.52h-.38v-.63h-.57v.63H40.7V18.29h.38Z" transform="translate(-0.13 -0.11)"/><path class="cls-3" d="M42.62,19.81h-.2V18.29h.37v.89l.78-.89h.18v1.52h-.37v-.87Z" transform="translate(-0.13 -0.11)"/><path class="cls-3" d="M44.13,18.29h.38v.57l.52-.57h.46l-.68.74.68.78H45l-.45-.54,0,.05v.49h-.36Z" transform="translate(-0.13 -0.11)"/><path class="cls-3" d="M46.79,18.29h.38v1.52h-.38v-.16a.72.72,0,0,1-.22.15.64.64,0,0,1-.24.05.68.68,0,0,1-.51-.23.8.8,0,0,1-.21-.57.83.83,0,0,1,.21-.58.67.67,0,0,1,.5-.23.75.75,0,0,1,.26.05.78.78,0,0,1,.22.15v-.15Zm-.4.31a.35.35,0,0,0-.29.13.49.49,0,0,0,0,.64.41.41,0,0,0,.29.13.38.38,0,0,0,.3-.13.45.45,0,0,0,.12-.33.44.44,0,0,0-.12-.32A.41.41,0,0,0,46.39,18.6Z" transform="translate(-0.13 -0.11)"/><path class="cls-1" d="M6.24,16.94a14.52,14.52,0,0,1-3.73-6.42A15,15,0,0,1,2,6.93a5.44,5.44,0,0,1,.8-3.13A4.09,4.09,0,0,1,5.35,2.08a5.55,5.55,0,0,1,3.29.15A10.82,10.82,0,0,1,11.85,4a3,3,0,0,0,2.05.63,3.08,3.08,0,0,0,1.81-.88,3.27,3.27,0,0,1-1.81.33,2.39,2.39,0,0,1-1.44-.84c-.22-.22-.45-.46-.7-.69A2.44,2.44,0,0,1,12,2.32a3.57,3.57,0,0,1,2.08-.77h0a5.27,5.27,0,0,1,3.29,1.24C19.15,4.3,19.38,7,19,9.43a14.46,14.46,0,0,1-2.75,7,23.22,23.22,0,0,1-5.84,5.29,15.49,15.49,0,0,0,7-4.29,13.18,13.18,0,0,0,2.38-3.57A16,16,0,0,0,21,9.7a12.41,12.41,0,0,0-.16-4.37,6.34,6.34,0,0,0-2.52-3.79,6.38,6.38,0,0,0-2.08-.9A5.78,5.78,0,0,0,14,.57,6,6,0,0,0,11.14,2L11,1.87A9.37,9.37,0,0,0,9.22.79,6.41,6.41,0,0,0,1.15,2.71,7.18,7.18,0,0,0,.13,7,13.62,13.62,0,0,0,1,11,11.24,11.24,0,0,0,6.24,16.94Z" transform="translate(-0.13 -0.11)"/><path class="cls-2" d="M15.38,6.24a19.28,19.28,0,0,1-2,7,17.06,17.06,0,0,1-.89,1.48,8.39,8.39,0,0,1-4.66-2.43A8.49,8.49,0,0,1,5.55,6.41a.61.61,0,0,1,0-.14,8.06,8.06,0,0,0,1,6.43,9.73,9.73,0,0,0,4.64,3.73A25.54,25.54,0,0,1,8.7,18.88a8.53,8.53,0,0,0,3.5-1.79A10.19,10.19,0,0,0,14.73,14a10.46,10.46,0,0,0,1.14-3.84A8.85,8.85,0,0,0,15.38,6.24Z" transform="translate(-0.13 -0.11)"/><path class="cls-4" d="M40,9.66A.9.9,0,0,0,40.21,9V4.67A.92.92,0,0,0,40,4.05a.63.63,0,0,0-.5-.19h-.67v6h.67A.72.72,0,0,0,40,9.66Z" transform="translate(-0.13 -0.11)"/><path class="cls-1" d="M37.55,5.28V11h2a1.94,1.94,0,0,0,1.48-.53A2.16,2.16,0,0,0,41.53,9V4.72A2.19,2.19,0,0,0,41,3.17a1.94,1.94,0,0,0-1.48-.53H38.42l-.1.31Zm1.32-1.43h.67A.63.63,0,0,1,40,4a.9.9,0,0,1,.17.62V9a.92.92,0,0,1-.17.62.63.63,0,0,1-.5.19h-.67Z" transform="translate(-0.13 -0.11)"/><polygon class="cls-2" points="34.33 10.94 35.65 10.94 35.65 7.36 37.25 2.54 35.96 2.54 35.06 5.62 35.04 5.62 34.14 2.54 32.73 2.54 34.33 7.36 34.33 10.94"/></svg>